Coordinates
version=1
nRows=17
nColumns=24
inDegrees=yes

Units are S.I. units (second, meters, Newtons, ...)
Angles are in degrees.

endheader
time	pelvis_tilt	pelvis_list	pelvis_rotation	pelvis_tx	pelvis_ty	pelvis_tz	hip_flexion_r	hip_adduction_r	hip_rotation_r	knee_angle_r	ankle_angle_r	subtalar_angle_r	mtp_angle_r	hip_flexion_l	hip_adduction_l	hip_rotation_l	knee_angle_l	ankle_angle_l	subtalar_angle_l	mtp_angle_l	lumbar_extension	lumbar_bending	lumbar_rotation
      1.32900000	     -0.48649601	      6.84955723	      0.89135927	      0.22136037	      0.99614576	      0.31908487	     16.91444004	     -8.22394703	     -1.10585490	    -67.55073419	     -2.56445867	     -7.33056487	      4.98418334	      8.46705015	     12.26373511	      4.66955265	    -12.23791188	      1.13876246	    -12.67803328	     -1.48771590	      0.47201306	     -5.11267493	      2.82239583
      1.33316667	     -0.39066018	      6.75496968	      0.97820280	      0.22646208	      0.99685178	      0.31887941	     17.36991632	     -8.13341859	     -1.08289265	    -67.33726076	     -1.79711790	     -7.67981608	      4.89802433	      7.87898977	     12.18094167	      4.91425377	    -11.97831023	      1.26706987	    -12.72587851	     -1.52948472	      0.34395625	     -5.00411239	      2.70337559
      1.33733333	     -0.30224865	      6.66525861	      1.06231738	      0.23154445	      0.99749580	      0.31867113	     17.82707601	     -8.05130875	     -1.06053538	    -67.07920821	     -1.06553106	     -8.02574168	      4.80535476	      7.30402828	     12.10012253	      5.15372357	    -11.72438123	      1.40036812	    -12.77041489	     -1.57451882	      0.22234484	     -4.90359871	      2.58531958
      1.34150000	     -0.16938069	      6.58065254	      1.13188443	      0.23665316	      0.99821002	      0.31848539	     18.21516685	     -7.96359337	     -1.02422790	    -66.75630335	     -0.28772635	     -8.28196884	      1.18407545	      6.64478495	     12.02500613	      5.45171123	    -11.39787132	      1.47727230	    -12.95012721	     -3.31544266	      0.05665828	     -4.81401894	      2.44869077
      1.34566667	     -0.09401664	      6.48492284	      1.22755462	      0.24170003	      0.99879163	      0.31829984	     18.65921406	     -7.86972941	     -1.01132491	    -66.39276370	      0.41014205	     -8.69484634	      1.16528497	      6.10333962	     11.92777404	      5.66391925	    -11.17914196	      1.66511285	    -12.90493242	     -3.31073699	     -0.04663543	     -4.71568080	      2.31109764
      1.34983333	     -0.02095543	      6.38223894	      1.32191471	      0.24673801	      0.99933554	      0.31810703	     19.09068945	     -7.77156774	     -1.00516901	    -65.97300701	      1.11624004	     -8.96701468	      1.15764798	      5.56953032	     11.82030306	      5.86701610	    -10.96638313	      1.83732327	    -12.87972323	     -3.30904762	     -0.14595203	     -4.59605281	      2.24634810
      1.35400000	      0.08591200	      6.29133105	      1.40062481	      0.25176338	      0.99988037	      0.31793621	     19.47885567	     -7.68271357	     -0.98886216	    -65.51325740	      1.80247047	     -9.29400454	      1.14229186	      4.99144282	     11.72085906	      6.06450707	    -10.73121210	      1.99976573	    -12.86826191	     -3.31047380	     -0.29278139	     -4.48649068	      2.15474166
      1.35816667	      0.20575487	      6.20443612	      1.46856920	      0.25680405	      1.00043497	      0.31779339	     19.83410426	     -7.59029552	     -0.96069716	    -64.98866627	      2.38989877	     -9.68958556	      1.09559822	      4.38526663	     11.62020945	      6.26616743	    -10.46470971	      2.13879953	    -12.88575268	     -3.32168899	     -0.44920254	     -4.40127360	      2.00634535
      1.36233333	      0.27962051	      6.11232518	      1.55350424	      0.26179917	      1.00086742	      0.31761596	     20.23359925	     -7.50402912	     -0.95516388	    -64.43617981	      3.02694819	     -9.93153847	      1.07402495	      3.85511350	     11.51493263	      6.45664625	    -10.24808532	      2.30784089	    -12.85860579	     -3.32641335	     -0.56514728	     -4.27193333	      1.94330867
      1.36650000	      0.39466104	      6.02449879	      1.62854445	      0.26680905	      1.00134258	      0.31748460	     20.56411908	     -7.41115159	     -0.93935578	    -63.81691253	      3.63261947	    -10.23906818	      1.03782076	      3.27393544	     11.40613434	      6.62939273	    -10.01540612	      2.47087349	    -12.84172168	     -3.33592280	     -0.70992220	     -4.18846896	      1.84854012
      1.37066667	      0.48007823	      5.94360598	      1.70421601	      0.27179304	      1.00171920	      0.31734153	     20.92215565	     -7.33024582	     -0.92534828	    -63.16700813	      4.18730518	    -10.51006926	      0.99853199	      2.73170534	     11.30472526	      6.80118894	     -9.79228879	      2.64093091	    -12.81570294	     -3.34616699	     -0.83362581	     -4.09518558	      1.75934319
      1.37483333	      0.57927873	      5.86654938	      1.77506591	      0.27677164	      1.00209645	      0.31721419	     21.24916595	     -7.25193909	     -0.91361586	    -62.46723131	      4.72427636	    -10.77014069	      0.95592745	      2.17380206	     11.20291676	      6.96262982	     -9.56346836	      2.80873926	    -12.78188602	     -3.35757434	     -0.97265471	     -4.00233443	      1.67253691
      1.37900000	      0.68746492	      5.79134470	      1.84269105	      0.28174919	      1.00245400	      0.31710145	     21.54823199	     -7.17210792	     -0.89959179	    -61.71601037	      5.21917300	    -11.02633263	      0.90131321	      1.60635313	     11.09949226	      7.11694168	     -9.33235054	      2.97957990	    -12.74752944	     -3.37229431	     -1.11772920	     -3.91613654	      1.57886885
      1.38316667	      0.76764321	      5.72021573	      1.91235623	      0.28670210	      1.00271552	      0.31698205	     21.87080197	     -7.10028505	     -0.89102042	    -60.93443875	      5.68266656	    -11.24033442	      0.84710161	      1.08021695	     11.00092861	      7.26347170	     -9.12012776	      3.15669391	    -12.70598819	     -3.38620524	     -1.24034243	     -3.83018868	      1.49888594
      1.38733333	      0.84032981	      5.66489346	      1.98067612	      0.29164713	      1.00294192	      0.31687585	     22.18676036	     -7.04383346	     -0.87856694	    -60.11053736	      6.12135938	    -11.44018891	      0.79108656	      0.56171616	     10.91673127	      7.40808460	     -8.90354001	      3.32945408	    -12.66510933	     -3.40039738	     -1.35078228	     -3.76574533	      1.42090246
      1.39150000	      0.91983084	      5.60606751	      2.04612974	      0.29658731	      1.00313419	      0.31677457	     22.47917494	     -6.98356013	     -0.87123681	    -59.24315802	      6.52673344	    -11.62440228	      0.73085733	      0.03963774	     10.82716869	      7.54333420	     -8.69243106	      3.50687124	    -12.62470751	     -3.41496626	     -1.47361835	     -3.69394590	      1.34485032
      1.39566667	      1.01314866	      5.55760453	      2.10063692	      0.30153009	      1.00331417	      0.31670048	     22.74210174	     -6.92997771	     -0.86056334	    -58.33312129	      6.85516178	    -11.81699497	      0.61970828	     -0.50716147	     10.74421033	      7.67025627	     -8.45693928	      3.67606836	    -12.58456649	     -3.44289736	     -1.61429261	     -3.64292433	      1.23673476
